<svg width="29" height="29" viewBox="0 0 29 29" fill="none" xmlns="http://www.w3.org/2000/svg">
<path d="M2.56267 26.104C4.124 27.6667 6.63867 27.6667 11.6667 27.6667H17C22.028 27.6667 24.5427 27.6667 26.104 26.104C27.6667 24.5427 27.6667 22.028 27.6667 17C27.6667 15.44 27.6667 14.1227 27.62 13M26.104 7.896C24.5427 6.33333 22.028 6.33333 17 6.33333H11.6667C6.63867 6.33333 4.124 6.33333 2.56267 7.896C1 9.45733 1 11.972 1 17C1 18.56 1 19.8773 1.04667 21M14.3333 1C16.848 1 18.104 1 18.8853 1.78133C19.6667 2.56267 19.6667 3.81867 19.6667 6.33333M9.78133 1.78133C9 2.56267 9 3.81867 9 6.33333" stroke="#C8F069" stroke-width="2" stroke-linecap="round"/>
<path d="M14.3346 21.4441C15.808 21.4441 17.0013 20.4494 17.0013 19.2227C17.0013 17.9961 15.808 17.0001 14.3346 17.0001C12.8613 17.0001 11.668 16.0054 11.668 14.7774C11.668 13.5507 12.8613 12.5561 14.3346 12.5561M14.3346 21.4441C12.8613 21.4441 11.668 20.4494 11.668 19.2227M14.3346 21.4441V22.3334M14.3346 12.5561V11.6667M14.3346 12.5561C15.808 12.5561 17.0013 13.5507 17.0013 14.7774" stroke="#C8F069" stroke-width="2" stroke-linecap="round"/>
</svg>
