<svg width="29" height="26" viewBox="0 0 29 26" fill="none" xmlns="http://www.w3.org/2000/svg">
<path d="M14.6667 20C14.6667 20.4533 14.72 20.8933 14.7867 21.3333H2.66667C1.95942 21.3333 1.28115 21.0524 0.781048 20.5523C0.280951 20.0522 0 19.3739 0 18.6667V2.66667C0 1.18667 1.18667 0 2.66667 0H10.6667L13.3333 2.66667H24C24.7072 2.66667 25.3855 2.94762 25.8856 3.44771C26.3857 3.94781 26.6667 4.62609 26.6667 5.33333V13.08C25.8533 12.6133 24.96 12.2933 24 12.12V5.33333H2.66667V18.6667H14.7867C14.72 19.1067 14.6667 19.5467 14.6667 20ZM26.6667 21.3333V16H24V21.3333H22L25.3333 25.3333L28.6667 21.3333H26.6667ZM20 14.6667L16.6667 18.6667H18.6667V24H21.3333V18.6667H23.3333L20 14.6667Z" fill="#C8F069"/>
</svg>
