<svg width="32" height="32" viewBox="0 0 32 32" fill="none" xmlns="http://www.w3.org/2000/svg">
<path d="M16 16C15.137 16 14.2933 16.2815 13.5757 16.8089C12.8581 17.3364 12.2988 18.086 11.9685 18.9631C11.6383 19.8402 11.5518 20.8053 11.7202 21.7364C11.8886 22.6675 12.3042 23.5228 12.9144 24.1941C13.5247 24.8654 14.3022 25.3226 15.1487 25.5078C15.9952 25.693 16.8725 25.5979 17.6699 25.2346C18.4672 24.8713 19.1487 24.2561 19.6282 23.4667C20.1077 22.6774 20.3636 21.7494 20.3636 20.8C20.3636 19.527 19.9039 18.3061 19.0856 17.4059C18.2672 16.5057 17.1573 16 16 16ZM16 22.4C15.7123 22.4 15.4311 22.3062 15.1919 22.1304C14.9527 21.9545 14.7663 21.7047 14.6562 21.4123C14.5461 21.1199 14.5173 20.7982 14.5734 20.4879C14.6295 20.1775 14.7681 19.8924 14.9715 19.6686C15.1749 19.4449 15.4341 19.2925 15.7162 19.2307C15.9984 19.169 16.2908 19.2007 16.5566 19.3218C16.8224 19.4429 17.0496 19.648 17.2094 19.9111C17.3692 20.1742 17.4545 20.4836 17.4545 20.8C17.4545 21.2243 17.3013 21.6313 17.0285 21.9314C16.7557 22.2314 16.3858 22.4 16 22.4ZM14.9673 12.336C15.1056 12.4817 15.2687 12.5958 15.4473 12.672C15.6214 12.7566 15.8096 12.8004 16 12.8004C16.1904 12.8004 16.3786 12.7566 16.5527 12.672C16.7313 12.5958 16.8944 12.4817 17.0327 12.336L20.3636 8.736C20.6452 8.42623 20.8035 8.00609 20.8035 7.568C20.8035 7.12992 20.6452 6.70977 20.3636 6.4C20.082 6.09023 19.7001 5.9162 19.3018 5.9162C18.9036 5.9162 18.5216 6.09023 18.24 6.4L17.4545 7.344V1.6C17.4545 1.17565 17.3013 0.768687 17.0285 0.468629C16.7557 0.168571 16.3858 0 16 0C15.6142 0 15.2443 0.168571 14.9715 0.468629C14.6987 0.768687 14.5455 1.17565 14.5455 1.6V7.344L13.76 6.4C13.4784 6.09023 13.0964 5.9162 12.6982 5.9162C12.2999 5.9162 11.918 6.09023 11.6364 6.4C11.3548 6.70977 11.1965 7.12992 11.1965 7.568C11.1965 8.00609 11.3548 8.42623 11.6364 8.736L14.9673 12.336ZM26.1818 20.8C26.1818 20.4836 26.0965 20.1742 25.9367 19.9111C25.7769 19.648 25.5497 19.4429 25.2839 19.3218C25.0181 19.2007 24.7257 19.169 24.4435 19.2307C24.1614 19.2925 23.9022 19.4449 23.6988 19.6686C23.4953 19.8924 23.3568 20.1775 23.3007 20.4879C23.2446 20.7982 23.2734 21.1199 23.3834 21.4123C23.4935 21.7047 23.68 21.9545 23.9192 22.1304C24.1584 22.3062 24.4396 22.4 24.7273 22.4C25.113 22.4 25.483 22.2314 25.7558 21.9314C26.0286 21.6313 26.1818 21.2243 26.1818 20.8ZM27.6364 9.6H23.2727C22.887 9.6 22.517 9.76857 22.2442 10.0686C21.9714 10.3687 21.8182 10.7757 21.8182 11.2C21.8182 11.6243 21.9714 12.0313 22.2442 12.3314C22.517 12.6314 22.887 12.8 23.2727 12.8H27.6364C28.0221 12.8 28.3921 12.9686 28.6649 13.2686C28.9377 13.5687 29.0909 13.9757 29.0909 14.4V27.2C29.0909 27.6243 28.9377 28.0313 28.6649 28.3314C28.3921 28.6314 28.0221 28.8 27.6364 28.8H4.36364C3.97787 28.8 3.6079 28.6314 3.33512 28.3314C3.06234 28.0313 2.90909 27.6243 2.90909 27.2V14.4C2.90909 13.9757 3.06234 13.5687 3.33512 13.2686C3.6079 12.9686 3.97787 12.8 4.36364 12.8H8.72727C9.11304 12.8 9.48301 12.6314 9.75579 12.3314C10.0286 12.0313 10.1818 11.6243 10.1818 11.2C10.1818 10.7757 10.0286 10.3687 9.75579 10.0686C9.48301 9.76857 9.11304 9.6 8.72727 9.6H4.36364C3.20633 9.6 2.09642 10.1057 1.27808 11.0059C0.459739 11.9061 0 13.127 0 14.4V27.2C0 28.473 0.459739 29.6939 1.27808 30.5941C2.09642 31.4943 3.20633 32 4.36364 32H27.6364C28.7937 32 29.9036 31.4943 30.7219 30.5941C31.5403 29.6939 32 28.473 32 27.2V14.4C32 13.127 31.5403 11.9061 30.7219 11.0059C29.9036 10.1057 28.7937 9.6 27.6364 9.6ZM5.81818 20.8C5.81818 21.1165 5.90349 21.4258 6.06332 21.6889C6.22314 21.952 6.45031 22.1571 6.7161 22.2782C6.98188 22.3993 7.27434 22.431 7.5565 22.3693C7.83865 22.3075 8.09782 22.1551 8.30125 21.9314C8.50467 21.7076 8.6432 21.4225 8.69932 21.1121C8.75545 20.8018 8.72664 20.4801 8.61655 20.1877C8.50646 19.8953 8.32003 19.6455 8.08083 19.4696C7.84163 19.2938 7.56041 19.2 7.27273 19.2C6.88696 19.2 6.51699 19.3686 6.24421 19.6686C5.97143 19.9687 5.81818 20.3757 5.81818 20.8Z" fill="#C8F069"/>
</svg>
