<svg width="30" height="30" viewBox="0 0 30 30" fill="none" xmlns="http://www.w3.org/2000/svg">
<path d="M27.575 0L18.3625 3.45938L21.6688 5.54375C15.7625 12.9812 7.21875 17.5625 0 19.3063L2.045 23.0312C10.1562 20.3875 18.7438 15.6187 24.275 7.19375L26.7938 8.78125L27.575 0ZM28.0563 7.29375L27.7563 10.7188L24.55 8.69375C24.4375 8.8625 24.3188 9.025 24.2 9.19375V29.1688H29.075V7.29375H28.0563ZM18.6438 15.2937C17.85 15.9812 17.0312 16.6313 16.2 17.2438V29.1688H21.075V15.2937H18.6438ZM10.9125 20.5438C10.0125 21.0188 9.1125 21.4563 8.2 21.8688V29.1688H13.075V20.5438H10.9125ZM0.2 23.2938V29.1688H5.075V23.2938H4.72C3.79375 23.6375 2.86813 23.9562 1.94813 24.25L1.50688 24.3875L0.906875 23.2938H0.2Z" fill="#C8F069"/>
</svg>
