<svg width="32" height="32" viewBox="0 0 32 32" fill="none" xmlns="http://www.w3.org/2000/svg">
<path d="M28 9.33341V8.49341C28 6.90275 28 6.10675 27.7893 5.46675C27.598 4.87239 27.2722 4.33017 26.8372 3.88224C26.4023 3.4343 25.8698 3.09273 25.2813 2.88408C24.6573 2.66675 23.8853 2.66675 22.34 2.66675H9.66C8.11467 2.66675 7.34267 2.66675 6.71867 2.88408C6.13037 3.09269 5.59808 3.43409 5.16312 3.88176C4.72816 4.32944 4.40224 4.87135 4.21067 5.46541C4 6.10808 4 6.90275 4 8.49341V20.0001M28 14.6667V27.1654C28 28.3094 26.6867 28.9174 25.856 28.1574C25.623 27.9421 25.3173 27.8225 25 27.8225C24.6827 27.8225 24.377 27.9421 24.144 28.1574L23.5 28.7467C23.0917 29.1243 22.5561 29.334 22 29.334C21.4439 29.334 20.9083 29.1243 20.5 28.7467C20.0917 28.3692 19.5561 28.1595 19 28.1595C18.4439 28.1595 17.9083 28.3692 17.5 28.7467C17.0917 29.1243 16.5561 29.334 16 29.334C15.4439 29.334 14.9083 29.1243 14.5 28.7467C14.0917 28.3692 13.5561 28.1595 13 28.1595C12.4439 28.1595 11.9083 28.3692 11.5 28.7467C11.0917 29.1243 10.5561 29.334 10 29.334C9.44391 29.334 8.90828 29.1243 8.5 28.7467L7.856 28.1574C7.62295 27.9421 7.3173 27.8225 7 27.8225C6.6827 27.8225 6.37705 27.9421 6.144 28.1574C5.31333 28.9174 4 28.3094 4 27.1654V25.3334" stroke="#C8F069" stroke-width="2" stroke-linecap="round"/>
<path d="M12.668 13.8667L14.5733 16.0001L19.3346 10.6667" stroke="#C8F069" stroke-width="2" stroke-linecap="round" stroke-linejoin="round"/>
<path d="M10 20.6667H12M22 20.6667H16" stroke="#C8F069" stroke-width="2" stroke-linecap="round"/>
</svg>
