<svg width="48" height="48" viewBox="0 0 48 48" fill="none" xmlns="http://www.w3.org/2000/svg">
<path fill-rule="evenodd" clip-rule="evenodd" d="M30.8366 11.286C30.5608 10.8453 30.1544 10.5015 29.674 10.3026C29.1937 10.1036 28.6633 10.0594 28.1566 10.176L24.5606 11.002C24.1921 11.0867 23.8091 11.0867 23.4406 11.002L19.8446 10.176C19.3379 10.0594 18.8075 10.1036 18.3271 10.3026C17.8468 10.5015 17.4404 10.8453 17.1646 11.286L15.2046 14.414C15.0046 14.734 14.7346 15.004 14.4146 15.206L11.2866 17.166C10.8466 17.4416 10.5034 17.8473 10.3045 18.3268C10.1056 18.8064 10.0609 19.3359 10.1766 19.842L11.0026 23.442C11.087 23.8099 11.087 24.1921 11.0026 24.56L10.1766 28.158C10.0604 28.6644 10.1049 29.1944 10.3038 29.6743C10.5027 30.1543 10.8462 30.5603 11.2866 30.836L14.4146 32.796C14.7346 32.996 15.0046 33.266 15.2066 33.586L17.1666 36.714C17.7306 37.616 18.8066 38.062 19.8446 37.824L23.4406 36.998C23.8091 36.9133 24.1921 36.9133 24.5606 36.998L28.1586 37.824C28.665 37.9402 29.195 37.8957 29.6749 37.6968C30.1548 37.4979 30.5609 37.1544 30.8366 36.714L32.7966 33.586C32.9966 33.266 33.2666 32.996 33.5866 32.796L36.7166 30.836C37.157 30.5599 37.5003 30.1534 37.6989 29.6731C37.8975 29.1928 37.9414 28.6625 37.8246 28.156L37.0006 24.56C36.9159 24.1915 36.9159 23.8085 37.0006 23.44L37.8266 19.842C37.943 19.3358 37.8988 18.806 37.7002 18.3261C37.5017 17.8462 37.1586 17.44 36.7186 17.164L33.5886 15.204C33.269 15.0037 32.999 14.7336 32.7986 14.414L30.8366 11.286ZM29.8306 19.54C29.9543 19.3126 29.9849 19.046 29.9161 18.7964C29.8472 18.5468 29.6843 18.3336 29.4614 18.2017C29.2386 18.0698 28.9733 18.0295 28.7214 18.0893C28.4694 18.149 28.2505 18.3041 28.1106 18.522L22.8806 27.374L19.7226 24.35C19.6289 24.2538 19.5168 24.1775 19.393 24.1255C19.2691 24.0736 19.1361 24.0471 19.0018 24.0477C18.8676 24.0483 18.7348 24.0759 18.6114 24.129C18.488 24.182 18.3766 24.2593 18.2838 24.3563C18.1909 24.4533 18.1186 24.568 18.071 24.6936C18.0235 24.8192 18.0017 24.953 18.007 25.0872C18.0123 25.2214 18.0446 25.3531 18.1019 25.4746C18.1592 25.596 18.2404 25.7046 18.3406 25.794L22.4086 29.692C22.5175 29.7961 22.6485 29.8743 22.7918 29.9207C22.9351 29.9671 23.0871 29.9805 23.2363 29.9599C23.3855 29.9393 23.5282 29.8853 23.6536 29.8018C23.779 29.7184 23.884 29.6077 23.9606 29.478L29.8306 19.54Z" fill="#0F322E"/>
</svg>
