<svg width="48" height="48" viewBox="0 0 48 48" fill="none" xmlns="http://www.w3.org/2000/svg">
<g clip-path="url(#clip0_1_4392)">
<path d="M35.6114 7.70267C35.6114 7.70267 36.2909 10.5857 34.1189 10.9847C32.6114 11.2502 30.1739 9.75016 28.9469 8.25767C27.4319 6.41417 27.6269 4.96066 28.7984 3.67966C30.5639 1.71916 33.5954 2.47667 33.5954 2.47667C33.5954 2.47667 28.0484 -2.38334 22.2749 1.60216C17.1344 5.14067 18.6104 9.96167 23.2514 14.1722C27.4304 17.9762 24.0959 22.1492 19.8764 21.6092C16.9934 21.2417 15.8144 18.9212 16.5014 17.4992C17.1029 16.2797 19.1729 15.5297 19.1729 15.5297C19.1729 15.5297 16.7894 14.5682 13.9934 15.6242C11.4704 16.5692 9.39891 18.6482 9.56391 23.8667V48.0227C9.56391 48.0227 12.1649 44.8202 15.2279 41.5532C18.6494 37.8737 20.2124 35.3897 23.7284 35.6777C30.3854 36.0917 35.1974 33.1307 38.4704 28.3892C44.7524 19.2647 39.8294 9.06917 35.6114 7.70116V7.70267Z" fill="#0F322E"/>
</g>
<defs>
<clipPath id="clip0_1_4392">
<rect width="48" height="48" fill="white"/>
</clipPath>
</defs>
</svg>
