<svg width="32" height="32" viewBox="0 0 32 32" fill="none" xmlns="http://www.w3.org/2000/svg">
<path fill-rule="evenodd" clip-rule="evenodd" d="M3.4493 7.44784C2.66797 8.22917 2.66797 9.48517 2.66797 11.9998V19.9998C2.66797 22.5145 2.66797 23.7705 3.4493 24.5518C4.23064 25.3332 5.48664 25.3332 8.0013 25.3332H24.0013C26.516 25.3332 27.772 25.3332 28.5533 24.5518C29.3346 23.7705 29.3346 22.5145 29.3346 19.9998V11.9998C29.3346 9.48517 29.3346 8.22917 28.5533 7.44784C27.772 6.6665 26.516 6.6665 24.0013 6.6665H8.0013C5.48664 6.6665 4.23064 6.6665 3.4493 7.44784ZM6.66797 9.33317C6.31435 9.33317 5.97521 9.47365 5.72516 9.7237C5.47511 9.97374 5.33464 10.3129 5.33464 10.6665C5.33464 11.0201 5.47511 11.3593 5.72516 11.6093C5.97521 11.8594 6.31435 11.9998 6.66797 11.9998H9.33463C9.68826 11.9998 10.0274 11.8594 10.2774 11.6093C10.5275 11.3593 10.668 11.0201 10.668 10.6665C10.668 10.3129 10.5275 9.97374 10.2774 9.7237C10.0274 9.47365 9.68826 9.33317 9.33463 9.33317H6.66797ZM21.3346 21.3332C21.3346 20.9795 21.4751 20.6404 21.7252 20.3904C21.9752 20.1403 22.3143 19.9998 22.668 19.9998H25.3346C25.6883 19.9998 26.0274 20.1403 26.2774 20.3904C26.5275 20.6404 26.668 20.9795 26.668 21.3332C26.668 21.6868 26.5275 22.0259 26.2774 22.276C26.0274 22.526 25.6883 22.6665 25.3346 22.6665H22.668C22.3143 22.6665 21.9752 22.526 21.7252 22.276C21.4751 22.0259 21.3346 21.6868 21.3346 21.3332ZM17.3346 15.9998C17.3346 16.3535 17.1942 16.6926 16.9441 16.9426C16.6941 17.1927 16.3549 17.3332 16.0013 17.3332C15.6477 17.3332 15.3085 17.1927 15.0585 16.9426C14.8084 16.6926 14.668 16.3535 14.668 15.9998C14.668 15.6462 14.8084 15.3071 15.0585 15.057C15.3085 14.807 15.6477 14.6665 16.0013 14.6665C16.3549 14.6665 16.6941 14.807 16.9441 15.057C17.1942 15.3071 17.3346 15.6462 17.3346 15.9998ZM20.0013 15.9998C20.0013 17.0607 19.5799 18.0781 18.8297 18.8283C18.0796 19.5784 17.0622 19.9998 16.0013 19.9998C14.9404 19.9998 13.923 19.5784 13.1729 18.8283C12.4227 18.0781 12.0013 17.0607 12.0013 15.9998C12.0013 14.939 12.4227 13.9216 13.1729 13.1714C13.923 12.4213 14.9404 11.9998 16.0013 11.9998C17.0622 11.9998 18.0796 12.4213 18.8297 13.1714C19.5799 13.9216 20.0013 14.939 20.0013 15.9998Z" fill="#C8F069"/>
</svg>
