<svg width="32" height="32" viewBox="0 0 32 32" fill="none" xmlns="http://www.w3.org/2000/svg">
<path d="M16 2.6665C12.507 2.67548 9.15646 4.05254 6.66667 6.5025V3.99984C6.66667 3.64622 6.52619 3.30708 6.27614 3.05703C6.02609 2.80698 5.68696 2.6665 5.33333 2.6665C4.97971 2.6665 4.64057 2.80698 4.39052 3.05703C4.14048 3.30708 4 3.64622 4 3.99984V9.99984C4 10.3535 4.14048 10.6926 4.39052 10.9426C4.64057 11.1927 4.97971 11.3332 5.33333 11.3332H11.3333C11.687 11.3332 12.0261 11.1927 12.2761 10.9426C12.5262 10.6926 12.6667 10.3535 12.6667 9.99984C12.6667 9.64621 12.5262 9.30708 12.2761 9.05703C12.0261 8.80698 11.687 8.6665 11.3333 8.6665H8.29067C9.50652 7.38822 11.0207 6.4318 12.6974 5.88308C14.374 5.33435 16.1607 5.21049 17.8971 5.52261C19.6334 5.83472 21.2651 6.57305 22.6457 7.67133C24.0263 8.76962 25.1126 10.1935 25.8072 11.8152C26.5017 13.4369 26.7828 15.2056 26.6252 16.9628C26.4675 18.7199 25.8761 20.4103 24.9039 21.8825C23.9318 23.3547 22.6093 24.5624 21.0553 25.3974C19.5012 26.2324 17.7642 26.6685 16 26.6665C15.6464 26.6665 15.3072 26.807 15.0572 27.057C14.8071 27.3071 14.6667 27.6462 14.6667 27.9998C14.6667 28.3535 14.8071 28.6926 15.0572 28.9426C15.3072 29.1927 15.6464 29.3332 16 29.3332C19.5362 29.3332 22.9276 27.9284 25.4281 25.4279C27.9286 22.9274 29.3333 19.5361 29.3333 15.9998C29.3333 12.4636 27.9286 9.07223 25.4281 6.57175C22.9276 4.07126 19.5362 2.6665 16 2.6665Z" fill="#C8F069"/>
<path d="M18.668 17.3332H16.0013C15.6477 17.3332 15.3085 17.1927 15.0585 16.9426C14.8084 16.6926 14.668 16.3535 14.668 15.9998V11.9998C14.668 11.6462 14.8084 11.3071 15.0585 11.057C15.3085 10.807 15.6477 10.6665 16.0013 10.6665C16.3549 10.6665 16.6941 10.807 16.9441 11.057C17.1942 11.3071 17.3346 11.6462 17.3346 11.9998V14.6665H18.668C19.0216 14.6665 19.3607 14.807 19.6108 15.057C19.8608 15.3071 20.0013 15.6462 20.0013 15.9998C20.0013 16.3535 19.8608 16.6926 19.6108 16.9426C19.3607 17.1927 19.0216 17.3332 18.668 17.3332Z" fill="#C8F069"/>
<path opacity="0.5" d="M15.9976 5.3335C14.554 5.33908 13.1265 5.63735 11.8014 6.21028C10.4763 6.78321 9.28117 7.6189 8.28824 8.66683H11.3309C11.6845 8.66683 12.0237 8.80731 12.2737 9.05735C12.5238 9.3074 12.6642 9.64654 12.6642 10.0002C12.6642 10.3538 12.5238 10.6929 12.2737 10.943C12.0237 11.193 11.6845 11.3335 11.3309 11.3335H5.3309C5.00794 11.3312 4.69705 11.2105 4.45718 10.9942C4.21731 10.7779 4.06516 10.4812 4.02957 10.1602C3.03099 12.1906 2.56684 14.4422 2.68101 16.7021C2.79518 18.9619 3.4839 21.1553 4.68204 23.0748C5.88018 24.9943 7.54813 26.5764 9.52816 27.6716C11.5082 28.7667 13.7349 29.3387 15.9976 29.3335C15.6439 29.3335 15.3048 29.193 15.0548 28.943C14.8047 28.6929 14.6642 28.3538 14.6642 28.0002C14.6642 27.6465 14.8047 27.3074 15.0548 27.0574C15.3048 26.8073 15.6439 26.6668 15.9976 26.6668C18.8265 26.6668 21.5397 25.543 23.54 23.5426C25.5404 21.5422 26.6642 18.8291 26.6642 16.0002C26.6642 13.1712 25.5404 10.4581 23.54 8.45769C21.5397 6.4573 18.8265 5.3335 15.9976 5.3335ZM18.6642 17.3335H15.9976C15.6439 17.3335 15.3048 17.193 15.0548 16.943C14.8047 16.6929 14.6642 16.3538 14.6642 16.0002V12.0002C14.6642 11.6465 14.8047 11.3074 15.0548 11.0574C15.3048 10.8073 15.6439 10.6668 15.9976 10.6668C16.3512 10.6668 16.6903 10.8073 16.9404 11.0574C17.1904 11.3074 17.3309 11.6465 17.3309 12.0002V14.6668H18.6642C19.0179 14.6668 19.357 14.8073 19.607 15.0574C19.8571 15.3074 19.9976 15.6465 19.9976 16.0002C19.9976 16.3538 19.8571 16.6929 19.607 16.943C19.357 17.193 19.0179 17.3335 18.6642 17.3335Z" fill="#C8F069"/>
</svg>
